<svg width="164" height="40" viewBox="0 0 164 40" fill="none" xmlns="http://www.w3.org/2000/svg">
<rect width="164" height="40" rx="20" fill="#070750" fill-opacity="0.05"/>
<path d="M27.51 11.139C26.858 9.95399 25.142 9.95399 24.489 11.139C23.6303 12.6994 22.9225 14.3381 22.375 16.033C22.3492 16.0993 22.3038 16.1562 22.2449 16.196C22.1859 16.2359 22.1162 16.2568 22.045 16.256C20.578 16.2941 19.1158 16.4398 17.67 16.692C16.333 16.925 15.744 18.529 16.76 19.522C16.888 19.6473 17.0174 19.772 17.148 19.896C18.1269 20.8228 19.1633 21.6869 20.251 22.483C20.3005 22.5158 20.3379 22.5638 20.3577 22.6197C20.3776 22.6756 20.3787 22.7364 20.361 22.793C19.8119 24.4407 19.4195 26.1365 19.189 27.858C18.999 29.282 20.507 30.156 21.684 29.552C23.1129 28.8197 24.4792 27.9712 25.769 27.015C25.8366 26.9672 25.9173 26.9416 26 26.9416C26.0828 26.9416 26.1635 26.9672 26.231 27.015C27.5201 27.9723 28.8865 28.8209 30.316 29.552C31.493 30.156 33.001 29.282 32.811 27.858C32.5809 26.1366 32.1889 24.4407 31.64 22.793C31.6224 22.7364 31.6235 22.6756 31.6434 22.6197C31.6632 22.5638 31.7006 22.5158 31.75 22.483C32.9825 21.5809 34.1488 20.5917 35.24 19.523C36.256 18.529 35.667 16.925 34.33 16.692C32.884 16.4398 31.4214 16.2941 29.954 16.256C29.8831 16.2566 29.8136 16.2356 29.7548 16.1957C29.6961 16.1559 29.6508 16.0991 29.625 16.033C29.0794 14.3375 28.3704 12.6986 27.51 11.139Z" fill="#070750"/>
<path d="M55.51 11.139C54.858 9.95399 53.142 9.95399 52.489 11.139C51.6303 12.6994 50.9225 14.3381 50.375 16.033C50.3492 16.0993 50.3038 16.1562 50.2449 16.196C50.1859 16.2359 50.1162 16.2568 50.045 16.256C48.578 16.2941 47.1158 16.4398 45.67 16.692C44.333 16.925 43.744 18.529 44.76 19.522C44.888 19.6473 45.0174 19.772 45.148 19.896C46.1269 20.8228 47.1633 21.6869 48.251 22.483C48.3005 22.5158 48.3379 22.5638 48.3577 22.6197C48.3776 22.6756 48.3787 22.7364 48.361 22.793C47.8119 24.4407 47.4195 26.1365 47.189 27.858C46.999 29.282 48.507 30.156 49.684 29.552C51.1129 28.8197 52.4792 27.9712 53.769 27.015C53.8366 26.9672 53.9173 26.9416 54 26.9416C54.0828 26.9416 54.1635 26.9672 54.231 27.015C55.5201 27.9723 56.8865 28.8209 58.316 29.552C59.493 30.156 61.001 29.282 60.811 27.858C60.5809 26.1366 60.1889 24.4407 59.64 22.793C59.6224 22.7364 59.6235 22.6756 59.6434 22.6197C59.6632 22.5638 59.7006 22.5158 59.75 22.483C60.9825 21.5809 62.1488 20.5917 63.24 19.523C64.256 18.529 63.667 16.925 62.33 16.692C60.884 16.4398 59.4214 16.2941 57.954 16.256C57.8831 16.2566 57.8136 16.2356 57.7548 16.1957C57.6961 16.1559 57.6508 16.0991 57.625 16.033C57.0794 14.3375 56.3704 12.6986 55.51 11.139Z" fill="#070750"/>
<path d="M83.51 11.139C82.858 9.95399 81.142 9.95399 80.489 11.139C79.6303 12.6994 78.9225 14.3381 78.375 16.033C78.3492 16.0993 78.3038 16.1562 78.2449 16.196C78.1859 16.2359 78.1162 16.2568 78.045 16.256C76.578 16.2941 75.1158 16.4398 73.67 16.692C72.333 16.925 71.744 18.529 72.76 19.522C72.888 19.6473 73.0174 19.772 73.148 19.896C74.1269 20.8228 75.1633 21.6869 76.251 22.483C76.3005 22.5158 76.3379 22.5638 76.3577 22.6197C76.3776 22.6756 76.3787 22.7364 76.361 22.793C75.8119 24.4407 75.4195 26.1365 75.189 27.858C74.999 29.282 76.507 30.156 77.684 29.552C79.1129 28.8197 80.4792 27.9712 81.769 27.015C81.8366 26.9672 81.9173 26.9416 82 26.9416C82.0828 26.9416 82.1635 26.9672 82.231 27.015C83.5201 27.9723 84.8865 28.8209 86.316 29.552C87.493 30.156 89.001 29.282 88.811 27.858C88.5809 26.1366 88.1889 24.4407 87.64 22.793C87.6224 22.7364 87.6235 22.6756 87.6434 22.6197C87.6632 22.5638 87.7006 22.5158 87.75 22.483C88.9825 21.5809 90.1488 20.5917 91.24 19.523C92.256 18.529 91.667 16.925 90.33 16.692C88.884 16.4398 87.4214 16.2941 85.954 16.256C85.8831 16.2566 85.8136 16.2356 85.7548 16.1957C85.6961 16.1559 85.6508 16.0991 85.625 16.033C85.0794 14.3375 84.3704 12.6986 83.51 11.139Z" fill="#070750"/>
<path d="M111.51 11.139C110.858 9.95399 109.142 9.95399 108.489 11.139C107.63 12.6994 106.922 14.3381 106.375 16.033C106.349 16.0993 106.304 16.1562 106.245 16.196C106.186 16.2359 106.116 16.2568 106.045 16.256C104.578 16.2941 103.116 16.4398 101.67 16.692C100.333 16.925 99.744 18.529 100.76 19.522C100.888 19.6473 101.017 19.772 101.148 19.896C102.127 20.8228 103.163 21.6869 104.251 22.483C104.3 22.5158 104.338 22.5638 104.358 22.6197C104.378 22.6756 104.379 22.7364 104.361 22.793C103.812 24.4407 103.419 26.1365 103.189 27.858C102.999 29.282 104.507 30.156 105.684 29.552C107.113 28.8197 108.479 27.9712 109.769 27.015C109.837 26.9672 109.917 26.9416 110 26.9416C110.083 26.9416 110.163 26.9672 110.231 27.015C111.52 27.9723 112.886 28.8209 114.316 29.552C115.493 30.156 117.001 29.282 116.811 27.858C116.581 26.1366 116.189 24.4407 115.64 22.793C115.622 22.7364 115.624 22.6756 115.643 22.6197C115.663 22.5638 115.701 22.5158 115.75 22.483C116.983 21.5809 118.149 20.5917 119.24 19.523C120.256 18.529 119.667 16.925 118.33 16.692C116.884 16.4398 115.421 16.2941 113.954 16.256C113.883 16.2566 113.814 16.2356 113.755 16.1957C113.696 16.1559 113.651 16.0991 113.625 16.033C113.079 14.3375 112.37 12.6986 111.51 11.139Z" fill="#070750"/>
<path d="M139.51 11.139C138.858 9.95399 137.142 9.95399 136.489 11.139C135.63 12.6994 134.922 14.3381 134.375 16.033C134.349 16.0993 134.304 16.1562 134.245 16.196C134.186 16.2359 134.116 16.2568 134.045 16.256C132.578 16.2941 131.116 16.4398 129.67 16.692C128.333 16.925 127.744 18.529 128.76 19.522C128.888 19.6473 129.017 19.772 129.148 19.896C130.127 20.8228 131.163 21.6869 132.251 22.483C132.3 22.5158 132.338 22.5638 132.358 22.6197C132.378 22.6756 132.379 22.7364 132.361 22.793C131.812 24.4407 131.419 26.1365 131.189 27.858C130.999 29.282 132.507 30.156 133.684 29.552C135.113 28.8197 136.479 27.9712 137.769 27.015C137.837 26.9672 137.917 26.9416 138 26.9416C138.083 26.9416 138.163 26.9672 138.231 27.015C139.52 27.9723 140.886 28.8209 142.316 29.552C143.493 30.156 145.001 29.282 144.811 27.858C144.581 26.1366 144.189 24.4407 143.64 22.793C143.622 22.7364 143.624 22.6756 143.643 22.6197C143.663 22.5638 143.701 22.5158 143.75 22.483C144.983 21.5809 146.149 20.5917 147.24 19.523C148.256 18.529 147.667 16.925 146.33 16.692C144.884 16.4398 143.421 16.2941 141.954 16.256C141.883 16.2566 141.814 16.2356 141.755 16.1957C141.696 16.1559 141.651 16.0991 141.625 16.033C141.079 14.3375 140.37 12.6986 139.51 11.139Z" fill="#070750"/>
</svg>
