<svg width="60" height="60" viewBox="0 0 60 60" fill="none" xmlns="http://www.w3.org/2000/svg">
<g clip-path="url(#clip0_295_3105)">
<path d="M41.68 21.3C40.6 19.22 39.1 17.66 37.18 16.62C35.26 15.54 33.04 15 30.52 15C27.76 15 25.3 15.62 23.14 16.86C20.98 18.1 19.28 19.86 18.04 22.14C16.84 24.42 16.24 27.06 16.24 30.06C16.24 33.06 16.84 35.72 18.04 38.04C19.28 40.32 20.98 42.08 23.14 43.32C25.3 44.56 27.76 45.18 30.52 45.18C34.24 45.18 37.26 44.14 39.58 42.06C41.9 39.98 43.32 37.16 43.84 33.6H28.18V28.14H51.16V33.48C50.72 36.72 49.56 39.7 47.68 42.42C45.84 45.14 43.42 47.32 40.42 48.96C37.46 50.56 34.16 51.36 30.52 51.36C26.6 51.36 23.02 50.46 19.78 48.66C16.54 46.82 13.96 44.28 12.04 41.04C10.16 37.8 9.22 34.14 9.22 30.06C9.22 25.98 10.16 22.32 12.04 19.08C13.96 15.84 16.54 13.32 19.78 11.52C23.06 9.68 26.64 8.76 30.52 8.76C34.96 8.76 38.9 9.86 42.34 12.06C45.82 14.22 48.34 17.3 49.9 21.3H41.68Z" fill="#070750"/>
</g>
<defs>
<clipPath id="clip0_295_3105">
<rect width="60" height="60" rx="15.4839" fill="white"/>
</clipPath>
</defs>
</svg>
