<svg width="100" height="100" viewBox="0 0 100 100" fill="none" xmlns="http://www.w3.org/2000/svg">
<path fill-rule="evenodd" clip-rule="evenodd" d="M62.4917 35.2217C62.861 34.9995 63.302 34.9291 63.7221 35.0251C64.1423 35.1211 64.5089 35.3761 64.745 35.7367L66.395 38.2533C66.6101 38.5821 66.7021 38.9763 66.6549 39.3663C66.6076 39.7563 66.4241 40.1171 66.1367 40.385L66.1317 40.3917L66.1084 40.4133L66.0134 40.5017L65.6384 40.86C63.5634 42.8728 61.5514 44.9493 59.605 47.0867C55.9434 51.1133 51.595 56.3833 48.6684 61.4967C47.8517 62.9233 45.8567 63.23 44.6734 61.9983L33.865 50.7683C33.7101 50.6073 33.5892 50.4168 33.5094 50.2082C33.4296 49.9995 33.3925 49.7769 33.4005 49.5537C33.4084 49.3304 33.4611 49.111 33.5555 48.9085C33.6499 48.706 33.7841 48.5246 33.95 48.375L37.2167 45.4283C37.5038 45.1695 37.8719 45.0185 38.258 45.0012C38.6441 44.9839 39.0243 45.1013 39.3334 45.3333L44.8484 49.4683C53.4634 40.9733 58.3484 37.7133 62.4917 35.2217ZM62.8417 38.915C59.025 41.3017 54.2617 44.7633 46.1784 52.845C45.8947 53.1287 45.5183 53.3005 45.1181 53.329C44.718 53.3575 44.321 53.2407 44 53L38.43 48.8233L37.4617 49.6967L46.3234 58.9067C49.4 53.79 53.635 48.6967 57.14 44.8433C58.9858 42.8158 60.8893 40.8417 62.8484 38.9233L62.8417 38.915Z" fill="#070750"/>
<path d="M42.7871 12.0547C46.2914 7.04584 53.7086 7.04584 57.2129 12.0547C59.8182 15.7786 64.4758 17.474 68.8652 16.2959C74.7693 14.7113 80.4511 19.4789 79.916 25.5684C79.5181 30.0957 81.9964 34.3886 86.1162 36.3076C91.6576 38.8889 92.9455 46.1938 88.6211 50.5146C85.4064 53.7269 84.5457 58.6076 86.4678 62.7256C89.0535 68.2649 85.345 74.6894 79.2549 75.2197C74.7274 75.6141 70.9304 78.7993 69.7559 83.1895C68.1761 89.0948 61.2063 91.6322 56.2002 88.124C52.4784 85.5157 47.5216 85.5157 43.7998 88.124C38.7937 91.6322 31.8239 89.0948 30.2441 83.1895C29.0696 78.7993 25.2726 75.6141 20.7451 75.2197C14.655 74.6894 10.9465 68.2649 13.5322 62.7256C15.4543 58.6076 14.5936 53.7269 11.3789 50.5146C7.05453 46.1938 8.34241 38.8889 13.8838 36.3076C18.0036 34.3886 20.4819 30.0957 20.084 25.5684C19.5489 19.4789 25.2307 14.7113 31.1348 16.2959C35.5242 17.474 40.1818 15.7786 42.7871 12.0547Z" fill="#070750" fill-opacity="0.1" stroke="#070750" stroke-width="2"/>
</svg>
